<mxfile host="app.diagrams.net" modified="2023-12-04T16:44:42.934Z" agent="Mozilla/5.0 (Windows NT 10.0; Win64; x64) AppleWebKit/537.36 (KHTML, like Gecko) Chrome/119.0.0.0 Safari/537.36" etag="TfEHFm5ugOjuAt4uUcM3" version="22.1.5" type="github">
  <diagram id="C5RBs43oDa-KdzZeNtuy" name="Page-1">
    <mxGraphModel dx="1147" dy="624" grid="1" gridSize="10" guides="1" tooltips="1" connect="1" arrows="1" fold="1" page="1" pageScale="1" pageWidth="827" pageHeight="1169" math="0" shadow="0">
      <root>
        <mxCell id="WIyWlLk6GJQsqaUBKTNV-0" />
        <mxCell id="WIyWlLk6GJQsqaUBKTNV-1" parent="WIyWlLk6GJQsqaUBKTNV-0" />
        <mxCell id="uTGXkF76KkGdGuq-BqcJ-2" value="" style="edgeStyle=orthogonalEdgeStyle;rounded=0;orthogonalLoop=1;jettySize=auto;html=1;" edge="1" parent="WIyWlLk6GJQsqaUBKTNV-1" source="uTGXkF76KkGdGuq-BqcJ-0" target="uTGXkF76KkGdGuq-BqcJ-1">
          <mxGeometry relative="1" as="geometry" />
        </mxCell>
        <mxCell id="uTGXkF76KkGdGuq-BqcJ-0" value="Beginning" style="ellipse;whiteSpace=wrap;html=1;" vertex="1" parent="WIyWlLk6GJQsqaUBKTNV-1">
          <mxGeometry x="340" y="40" width="120" height="40" as="geometry" />
        </mxCell>
        <mxCell id="uTGXkF76KkGdGuq-BqcJ-4" value="" style="edgeStyle=orthogonalEdgeStyle;rounded=0;orthogonalLoop=1;jettySize=auto;html=1;" edge="1" parent="WIyWlLk6GJQsqaUBKTNV-1" source="uTGXkF76KkGdGuq-BqcJ-1" target="uTGXkF76KkGdGuq-BqcJ-3">
          <mxGeometry relative="1" as="geometry" />
        </mxCell>
        <mxCell id="uTGXkF76KkGdGuq-BqcJ-1" value="template &amp;lt;class T&amp;gt;" style="rounded=0;whiteSpace=wrap;html=1;" vertex="1" parent="WIyWlLk6GJQsqaUBKTNV-1">
          <mxGeometry x="340" y="100" width="120" height="30" as="geometry" />
        </mxCell>
        <mxCell id="uTGXkF76KkGdGuq-BqcJ-9" value="" style="edgeStyle=orthogonalEdgeStyle;rounded=0;orthogonalLoop=1;jettySize=auto;html=1;" edge="1" parent="WIyWlLk6GJQsqaUBKTNV-1" source="uTGXkF76KkGdGuq-BqcJ-3" target="uTGXkF76KkGdGuq-BqcJ-6">
          <mxGeometry relative="1" as="geometry" />
        </mxCell>
        <mxCell id="uTGXkF76KkGdGuq-BqcJ-3" value="Class DynamicArray&lt;br&gt;const growthFactor=2" style="rounded=0;whiteSpace=wrap;html=1;" vertex="1" parent="WIyWlLk6GJQsqaUBKTNV-1">
          <mxGeometry x="340" y="160" width="120" height="40" as="geometry" />
        </mxCell>
        <mxCell id="uTGXkF76KkGdGuq-BqcJ-10" value="" style="edgeStyle=orthogonalEdgeStyle;rounded=0;orthogonalLoop=1;jettySize=auto;html=1;" edge="1" parent="WIyWlLk6GJQsqaUBKTNV-1" source="uTGXkF76KkGdGuq-BqcJ-6" target="uTGXkF76KkGdGuq-BqcJ-7">
          <mxGeometry relative="1" as="geometry" />
        </mxCell>
        <mxCell id="uTGXkF76KkGdGuq-BqcJ-6" value="function resize" style="rounded=0;whiteSpace=wrap;html=1;" vertex="1" parent="WIyWlLk6GJQsqaUBKTNV-1">
          <mxGeometry x="500" y="165" width="120" height="30" as="geometry" />
        </mxCell>
        <mxCell id="uTGXkF76KkGdGuq-BqcJ-11" value="" style="edgeStyle=orthogonalEdgeStyle;rounded=0;orthogonalLoop=1;jettySize=auto;html=1;" edge="1" parent="WIyWlLk6GJQsqaUBKTNV-1" source="uTGXkF76KkGdGuq-BqcJ-7" target="uTGXkF76KkGdGuq-BqcJ-8">
          <mxGeometry relative="1" as="geometry" />
        </mxCell>
        <mxCell id="uTGXkF76KkGdGuq-BqcJ-7" value="capacity=capacity*&lt;br&gt;growthFactor" style="rounded=0;whiteSpace=wrap;html=1;" vertex="1" parent="WIyWlLk6GJQsqaUBKTNV-1">
          <mxGeometry x="650" y="160" width="120" height="40" as="geometry" />
        </mxCell>
        <mxCell id="uTGXkF76KkGdGuq-BqcJ-15" value="" style="edgeStyle=orthogonalEdgeStyle;rounded=0;orthogonalLoop=1;jettySize=auto;html=1;" edge="1" parent="WIyWlLk6GJQsqaUBKTNV-1" source="uTGXkF76KkGdGuq-BqcJ-8" target="uTGXkF76KkGdGuq-BqcJ-12">
          <mxGeometry relative="1" as="geometry" />
        </mxCell>
        <mxCell id="uTGXkF76KkGdGuq-BqcJ-8" value="capacity&amp;lt;=size" style="shape=hexagon;perimeter=hexagonPerimeter2;whiteSpace=wrap;html=1;fixedSize=1;" vertex="1" parent="WIyWlLk6GJQsqaUBKTNV-1">
          <mxGeometry x="790" y="165" width="120" height="30" as="geometry" />
        </mxCell>
        <mxCell id="uTGXkF76KkGdGuq-BqcJ-16" value="" style="edgeStyle=orthogonalEdgeStyle;rounded=0;orthogonalLoop=1;jettySize=auto;html=1;" edge="1" parent="WIyWlLk6GJQsqaUBKTNV-1" source="uTGXkF76KkGdGuq-BqcJ-12" target="uTGXkF76KkGdGuq-BqcJ-13">
          <mxGeometry relative="1" as="geometry" />
        </mxCell>
        <mxCell id="uTGXkF76KkGdGuq-BqcJ-22" value="" style="edgeStyle=orthogonalEdgeStyle;rounded=0;orthogonalLoop=1;jettySize=auto;html=1;" edge="1" parent="WIyWlLk6GJQsqaUBKTNV-1" source="uTGXkF76KkGdGuq-BqcJ-12" target="uTGXkF76KkGdGuq-BqcJ-14">
          <mxGeometry relative="1" as="geometry" />
        </mxCell>
        <mxCell id="uTGXkF76KkGdGuq-BqcJ-12" value="for(i=0; i&amp;lt;size; ++i)" style="shape=hexagon;perimeter=hexagonPerimeter2;whiteSpace=wrap;html=1;fixedSize=1;" vertex="1" parent="WIyWlLk6GJQsqaUBKTNV-1">
          <mxGeometry x="930" y="160" width="120" height="40" as="geometry" />
        </mxCell>
        <mxCell id="uTGXkF76KkGdGuq-BqcJ-13" value="newArr[i]=arr[i]" style="rounded=0;whiteSpace=wrap;html=1;" vertex="1" parent="WIyWlLk6GJQsqaUBKTNV-1">
          <mxGeometry x="1070" y="165" width="120" height="30" as="geometry" />
        </mxCell>
        <mxCell id="uTGXkF76KkGdGuq-BqcJ-14" value="arr=newArr" style="rounded=0;whiteSpace=wrap;html=1;" vertex="1" parent="WIyWlLk6GJQsqaUBKTNV-1">
          <mxGeometry x="950" y="110" width="80" height="30" as="geometry" />
        </mxCell>
        <mxCell id="uTGXkF76KkGdGuq-BqcJ-18" value="" style="endArrow=none;html=1;rounded=0;exitX=0.45;exitY=0;exitDx=0;exitDy=0;exitPerimeter=0;" edge="1" parent="WIyWlLk6GJQsqaUBKTNV-1" source="uTGXkF76KkGdGuq-BqcJ-8">
          <mxGeometry width="50" height="50" relative="1" as="geometry">
            <mxPoint x="710" y="120" as="sourcePoint" />
            <mxPoint x="844" y="140" as="targetPoint" />
          </mxGeometry>
        </mxCell>
        <mxCell id="uTGXkF76KkGdGuq-BqcJ-19" value="" style="endArrow=none;html=1;rounded=0;" edge="1" parent="WIyWlLk6GJQsqaUBKTNV-1">
          <mxGeometry width="50" height="50" relative="1" as="geometry">
            <mxPoint x="714" y="140" as="sourcePoint" />
            <mxPoint x="844" y="140" as="targetPoint" />
          </mxGeometry>
        </mxCell>
        <mxCell id="uTGXkF76KkGdGuq-BqcJ-20" value="" style="endArrow=classic;html=1;rounded=0;entryX=0.5;entryY=0;entryDx=0;entryDy=0;" edge="1" parent="WIyWlLk6GJQsqaUBKTNV-1">
          <mxGeometry width="50" height="50" relative="1" as="geometry">
            <mxPoint x="713" y="140" as="sourcePoint" />
            <mxPoint x="713" y="160" as="targetPoint" />
          </mxGeometry>
        </mxCell>
        <mxCell id="uTGXkF76KkGdGuq-BqcJ-23" value="" style="endArrow=none;html=1;rounded=0;entryX=0.5;entryY=1;entryDx=0;entryDy=0;" edge="1" parent="WIyWlLk6GJQsqaUBKTNV-1" target="uTGXkF76KkGdGuq-BqcJ-13">
          <mxGeometry width="50" height="50" relative="1" as="geometry">
            <mxPoint x="1130" y="220" as="sourcePoint" />
            <mxPoint x="760" y="70" as="targetPoint" />
          </mxGeometry>
        </mxCell>
        <mxCell id="uTGXkF76KkGdGuq-BqcJ-24" value="" style="endArrow=none;html=1;rounded=0;" edge="1" parent="WIyWlLk6GJQsqaUBKTNV-1">
          <mxGeometry width="50" height="50" relative="1" as="geometry">
            <mxPoint x="990" y="220" as="sourcePoint" />
            <mxPoint x="1130" y="220" as="targetPoint" />
          </mxGeometry>
        </mxCell>
        <mxCell id="uTGXkF76KkGdGuq-BqcJ-25" value="" style="endArrow=classic;html=1;rounded=0;entryX=0.5;entryY=1;entryDx=0;entryDy=0;" edge="1" parent="WIyWlLk6GJQsqaUBKTNV-1" target="uTGXkF76KkGdGuq-BqcJ-12">
          <mxGeometry width="50" height="50" relative="1" as="geometry">
            <mxPoint x="990" y="220" as="sourcePoint" />
            <mxPoint x="760" y="70" as="targetPoint" />
          </mxGeometry>
        </mxCell>
        <mxCell id="uTGXkF76KkGdGuq-BqcJ-30" value="" style="edgeStyle=orthogonalEdgeStyle;rounded=0;orthogonalLoop=1;jettySize=auto;html=1;" edge="1" parent="WIyWlLk6GJQsqaUBKTNV-1" source="uTGXkF76KkGdGuq-BqcJ-26" target="uTGXkF76KkGdGuq-BqcJ-29">
          <mxGeometry relative="1" as="geometry" />
        </mxCell>
        <mxCell id="uTGXkF76KkGdGuq-BqcJ-26" value="constructor DynamicArray" style="rounded=0;whiteSpace=wrap;html=1;" vertex="1" parent="WIyWlLk6GJQsqaUBKTNV-1">
          <mxGeometry x="510" y="250" width="100" height="40" as="geometry" />
        </mxCell>
        <mxCell id="uTGXkF76KkGdGuq-BqcJ-27" value="" style="endArrow=none;html=1;rounded=0;entryX=0.5;entryY=1;entryDx=0;entryDy=0;" edge="1" parent="WIyWlLk6GJQsqaUBKTNV-1" target="uTGXkF76KkGdGuq-BqcJ-3">
          <mxGeometry width="50" height="50" relative="1" as="geometry">
            <mxPoint x="400" y="950" as="sourcePoint" />
            <mxPoint x="760" y="70" as="targetPoint" />
          </mxGeometry>
        </mxCell>
        <mxCell id="uTGXkF76KkGdGuq-BqcJ-28" value="" style="endArrow=classic;html=1;rounded=0;entryX=0;entryY=0.5;entryDx=0;entryDy=0;" edge="1" parent="WIyWlLk6GJQsqaUBKTNV-1" target="uTGXkF76KkGdGuq-BqcJ-26">
          <mxGeometry width="50" height="50" relative="1" as="geometry">
            <mxPoint x="400" y="270" as="sourcePoint" />
            <mxPoint x="760" y="70" as="targetPoint" />
          </mxGeometry>
        </mxCell>
        <mxCell id="uTGXkF76KkGdGuq-BqcJ-29" value="arr=new T[capacity]" style="rounded=0;whiteSpace=wrap;html=1;" vertex="1" parent="WIyWlLk6GJQsqaUBKTNV-1">
          <mxGeometry x="650" y="255" width="120" height="30" as="geometry" />
        </mxCell>
        <mxCell id="uTGXkF76KkGdGuq-BqcJ-31" value="" style="edgeStyle=orthogonalEdgeStyle;rounded=0;orthogonalLoop=1;jettySize=auto;html=1;" edge="1" parent="WIyWlLk6GJQsqaUBKTNV-1" source="uTGXkF76KkGdGuq-BqcJ-32" target="uTGXkF76KkGdGuq-BqcJ-34">
          <mxGeometry relative="1" as="geometry" />
        </mxCell>
        <mxCell id="uTGXkF76KkGdGuq-BqcJ-32" value="destructor ~DynamicArray" style="rounded=0;whiteSpace=wrap;html=1;" vertex="1" parent="WIyWlLk6GJQsqaUBKTNV-1">
          <mxGeometry x="510" y="320" width="100" height="40" as="geometry" />
        </mxCell>
        <mxCell id="uTGXkF76KkGdGuq-BqcJ-33" value="" style="endArrow=classic;html=1;rounded=0;entryX=0;entryY=0.5;entryDx=0;entryDy=0;" edge="1" parent="WIyWlLk6GJQsqaUBKTNV-1" target="uTGXkF76KkGdGuq-BqcJ-32">
          <mxGeometry width="50" height="50" relative="1" as="geometry">
            <mxPoint x="400" y="340" as="sourcePoint" />
            <mxPoint x="760" y="140" as="targetPoint" />
          </mxGeometry>
        </mxCell>
        <mxCell id="uTGXkF76KkGdGuq-BqcJ-34" value="delete arr" style="rounded=0;whiteSpace=wrap;html=1;" vertex="1" parent="WIyWlLk6GJQsqaUBKTNV-1">
          <mxGeometry x="650" y="325" width="120" height="30" as="geometry" />
        </mxCell>
        <mxCell id="uTGXkF76KkGdGuq-BqcJ-40" value="" style="edgeStyle=orthogonalEdgeStyle;rounded=0;orthogonalLoop=1;jettySize=auto;html=1;" edge="1" parent="WIyWlLk6GJQsqaUBKTNV-1" source="uTGXkF76KkGdGuq-BqcJ-35" target="uTGXkF76KkGdGuq-BqcJ-36">
          <mxGeometry relative="1" as="geometry" />
        </mxCell>
        <mxCell id="uTGXkF76KkGdGuq-BqcJ-35" value="function insert" style="rounded=0;whiteSpace=wrap;html=1;" vertex="1" parent="WIyWlLk6GJQsqaUBKTNV-1">
          <mxGeometry x="510" y="420" width="100" height="30" as="geometry" />
        </mxCell>
        <mxCell id="uTGXkF76KkGdGuq-BqcJ-42" value="" style="edgeStyle=orthogonalEdgeStyle;rounded=0;orthogonalLoop=1;jettySize=auto;html=1;" edge="1" parent="WIyWlLk6GJQsqaUBKTNV-1" source="uTGXkF76KkGdGuq-BqcJ-36" target="uTGXkF76KkGdGuq-BqcJ-41">
          <mxGeometry relative="1" as="geometry" />
        </mxCell>
        <mxCell id="uTGXkF76KkGdGuq-BqcJ-36" value="index&amp;gt;size" style="rhombus;whiteSpace=wrap;html=1;" vertex="1" parent="WIyWlLk6GJQsqaUBKTNV-1">
          <mxGeometry x="630" y="395" width="80" height="80" as="geometry" />
        </mxCell>
        <mxCell id="uTGXkF76KkGdGuq-BqcJ-37" value="" style="endArrow=none;html=1;rounded=0;exitX=0.5;exitY=1;exitDx=0;exitDy=0;" edge="1" parent="WIyWlLk6GJQsqaUBKTNV-1" source="uTGXkF76KkGdGuq-BqcJ-36">
          <mxGeometry width="50" height="50" relative="1" as="geometry">
            <mxPoint x="710" y="320" as="sourcePoint" />
            <mxPoint x="670" y="500" as="targetPoint" />
          </mxGeometry>
        </mxCell>
        <mxCell id="uTGXkF76KkGdGuq-BqcJ-38" value="" style="endArrow=classic;html=1;rounded=0;" edge="1" parent="WIyWlLk6GJQsqaUBKTNV-1">
          <mxGeometry width="50" height="50" relative="1" as="geometry">
            <mxPoint x="670" y="500" as="sourcePoint" />
            <mxPoint x="400" y="500" as="targetPoint" />
          </mxGeometry>
        </mxCell>
        <mxCell id="uTGXkF76KkGdGuq-BqcJ-39" value="" style="endArrow=classic;html=1;rounded=0;entryX=0;entryY=0.5;entryDx=0;entryDy=0;" edge="1" parent="WIyWlLk6GJQsqaUBKTNV-1" target="uTGXkF76KkGdGuq-BqcJ-35">
          <mxGeometry width="50" height="50" relative="1" as="geometry">
            <mxPoint x="400" y="435" as="sourcePoint" />
            <mxPoint x="760" y="270" as="targetPoint" />
          </mxGeometry>
        </mxCell>
        <mxCell id="uTGXkF76KkGdGuq-BqcJ-44" value="" style="edgeStyle=orthogonalEdgeStyle;rounded=0;orthogonalLoop=1;jettySize=auto;html=1;" edge="1" parent="WIyWlLk6GJQsqaUBKTNV-1" source="uTGXkF76KkGdGuq-BqcJ-41" target="uTGXkF76KkGdGuq-BqcJ-43">
          <mxGeometry relative="1" as="geometry" />
        </mxCell>
        <mxCell id="uTGXkF76KkGdGuq-BqcJ-41" value="size=size+N" style="rounded=0;whiteSpace=wrap;html=1;" vertex="1" parent="WIyWlLk6GJQsqaUBKTNV-1">
          <mxGeometry x="740" y="422.5" width="100" height="25" as="geometry" />
        </mxCell>
        <mxCell id="uTGXkF76KkGdGuq-BqcJ-46" value="" style="edgeStyle=orthogonalEdgeStyle;rounded=0;orthogonalLoop=1;jettySize=auto;html=1;" edge="1" parent="WIyWlLk6GJQsqaUBKTNV-1" source="uTGXkF76KkGdGuq-BqcJ-43" target="uTGXkF76KkGdGuq-BqcJ-45">
          <mxGeometry relative="1" as="geometry" />
        </mxCell>
        <mxCell id="uTGXkF76KkGdGuq-BqcJ-43" value="while(size&amp;gt;=capacity)" style="shape=hexagon;perimeter=hexagonPerimeter2;whiteSpace=wrap;html=1;fixedSize=1;" vertex="1" parent="WIyWlLk6GJQsqaUBKTNV-1">
          <mxGeometry x="870" y="417.5" width="120" height="35" as="geometry" />
        </mxCell>
        <mxCell id="uTGXkF76KkGdGuq-BqcJ-45" value="resize" style="rounded=0;whiteSpace=wrap;html=1;" vertex="1" parent="WIyWlLk6GJQsqaUBKTNV-1">
          <mxGeometry x="900" y="365" width="60" height="30" as="geometry" />
        </mxCell>
        <mxCell id="uTGXkF76KkGdGuq-BqcJ-50" value="" style="edgeStyle=orthogonalEdgeStyle;rounded=0;orthogonalLoop=1;jettySize=auto;html=1;" edge="1" parent="WIyWlLk6GJQsqaUBKTNV-1" source="uTGXkF76KkGdGuq-BqcJ-47" target="uTGXkF76KkGdGuq-BqcJ-49">
          <mxGeometry relative="1" as="geometry" />
        </mxCell>
        <mxCell id="uTGXkF76KkGdGuq-BqcJ-47" value="copy_backward(arr+index, arr+size-N; arr+size)" style="rounded=0;whiteSpace=wrap;html=1;" vertex="1" parent="WIyWlLk6GJQsqaUBKTNV-1">
          <mxGeometry x="1020" y="412.5" width="140" height="45" as="geometry" />
        </mxCell>
        <mxCell id="uTGXkF76KkGdGuq-BqcJ-52" value="" style="edgeStyle=orthogonalEdgeStyle;rounded=0;orthogonalLoop=1;jettySize=auto;html=1;" edge="1" parent="WIyWlLk6GJQsqaUBKTNV-1" source="uTGXkF76KkGdGuq-BqcJ-49" target="uTGXkF76KkGdGuq-BqcJ-51">
          <mxGeometry relative="1" as="geometry" />
        </mxCell>
        <mxCell id="uTGXkF76KkGdGuq-BqcJ-49" value="for(i=0; i&amp;lt;N; ++i)" style="shape=hexagon;perimeter=hexagonPerimeter2;whiteSpace=wrap;html=1;fixedSize=1;" vertex="1" parent="WIyWlLk6GJQsqaUBKTNV-1">
          <mxGeometry x="1181" y="417.5" width="120" height="35" as="geometry" />
        </mxCell>
        <mxCell id="uTGXkF76KkGdGuq-BqcJ-51" value="arr[index+i]=values[i]" style="rounded=0;whiteSpace=wrap;html=1;" vertex="1" parent="WIyWlLk6GJQsqaUBKTNV-1">
          <mxGeometry x="1320" y="420" width="120" height="30" as="geometry" />
        </mxCell>
        <mxCell id="uTGXkF76KkGdGuq-BqcJ-54" value="" style="endArrow=none;html=1;rounded=0;entryX=0.5;entryY=1;entryDx=0;entryDy=0;" edge="1" parent="WIyWlLk6GJQsqaUBKTNV-1" target="uTGXkF76KkGdGuq-BqcJ-49">
          <mxGeometry width="50" height="50" relative="1" as="geometry">
            <mxPoint x="1241" y="500" as="sourcePoint" />
            <mxPoint x="800" y="270" as="targetPoint" />
          </mxGeometry>
        </mxCell>
        <mxCell id="uTGXkF76KkGdGuq-BqcJ-55" value="" style="endArrow=classic;html=1;rounded=0;" edge="1" parent="WIyWlLk6GJQsqaUBKTNV-1">
          <mxGeometry width="50" height="50" relative="1" as="geometry">
            <mxPoint x="1240" y="500" as="sourcePoint" />
            <mxPoint x="670" y="500" as="targetPoint" />
          </mxGeometry>
        </mxCell>
        <mxCell id="uTGXkF76KkGdGuq-BqcJ-62" value="" style="edgeStyle=orthogonalEdgeStyle;rounded=0;orthogonalLoop=1;jettySize=auto;html=1;" edge="1" parent="WIyWlLk6GJQsqaUBKTNV-1" source="uTGXkF76KkGdGuq-BqcJ-56" target="uTGXkF76KkGdGuq-BqcJ-59">
          <mxGeometry relative="1" as="geometry" />
        </mxCell>
        <mxCell id="uTGXkF76KkGdGuq-BqcJ-56" value="function erase" style="rounded=0;whiteSpace=wrap;html=1;" vertex="1" parent="WIyWlLk6GJQsqaUBKTNV-1">
          <mxGeometry x="515" y="550" width="90" height="30" as="geometry" />
        </mxCell>
        <mxCell id="uTGXkF76KkGdGuq-BqcJ-58" value="" style="endArrow=classic;html=1;rounded=0;entryX=0;entryY=0.5;entryDx=0;entryDy=0;" edge="1" parent="WIyWlLk6GJQsqaUBKTNV-1" target="uTGXkF76KkGdGuq-BqcJ-56">
          <mxGeometry width="50" height="50" relative="1" as="geometry">
            <mxPoint x="400" y="565" as="sourcePoint" />
            <mxPoint x="800" y="470" as="targetPoint" />
          </mxGeometry>
        </mxCell>
        <mxCell id="uTGXkF76KkGdGuq-BqcJ-64" value="" style="edgeStyle=orthogonalEdgeStyle;rounded=0;orthogonalLoop=1;jettySize=auto;html=1;" edge="1" parent="WIyWlLk6GJQsqaUBKTNV-1" source="uTGXkF76KkGdGuq-BqcJ-59" target="uTGXkF76KkGdGuq-BqcJ-63">
          <mxGeometry relative="1" as="geometry" />
        </mxCell>
        <mxCell id="uTGXkF76KkGdGuq-BqcJ-59" value="index&amp;gt;=size" style="rhombus;whiteSpace=wrap;html=1;" vertex="1" parent="WIyWlLk6GJQsqaUBKTNV-1">
          <mxGeometry x="630" y="525" width="80" height="80" as="geometry" />
        </mxCell>
        <mxCell id="uTGXkF76KkGdGuq-BqcJ-60" value="" style="endArrow=none;html=1;rounded=0;exitX=0.5;exitY=1;exitDx=0;exitDy=0;" edge="1" parent="WIyWlLk6GJQsqaUBKTNV-1" source="uTGXkF76KkGdGuq-BqcJ-59">
          <mxGeometry width="50" height="50" relative="1" as="geometry">
            <mxPoint x="750" y="520" as="sourcePoint" />
            <mxPoint x="670" y="640" as="targetPoint" />
          </mxGeometry>
        </mxCell>
        <mxCell id="uTGXkF76KkGdGuq-BqcJ-61" value="" style="endArrow=classic;html=1;rounded=0;" edge="1" parent="WIyWlLk6GJQsqaUBKTNV-1">
          <mxGeometry width="50" height="50" relative="1" as="geometry">
            <mxPoint x="670" y="640" as="sourcePoint" />
            <mxPoint x="400" y="640" as="targetPoint" />
          </mxGeometry>
        </mxCell>
        <mxCell id="uTGXkF76KkGdGuq-BqcJ-66" value="" style="edgeStyle=orthogonalEdgeStyle;rounded=0;orthogonalLoop=1;jettySize=auto;html=1;" edge="1" parent="WIyWlLk6GJQsqaUBKTNV-1" source="uTGXkF76KkGdGuq-BqcJ-63" target="uTGXkF76KkGdGuq-BqcJ-65">
          <mxGeometry relative="1" as="geometry" />
        </mxCell>
        <mxCell id="uTGXkF76KkGdGuq-BqcJ-63" value="elementsToRemove=&lt;br&gt;min(n, size-index)" style="rounded=0;whiteSpace=wrap;html=1;" vertex="1" parent="WIyWlLk6GJQsqaUBKTNV-1">
          <mxGeometry x="730" y="547.5" width="120" height="35" as="geometry" />
        </mxCell>
        <mxCell id="uTGXkF76KkGdGuq-BqcJ-68" value="" style="edgeStyle=orthogonalEdgeStyle;rounded=0;orthogonalLoop=1;jettySize=auto;html=1;" edge="1" parent="WIyWlLk6GJQsqaUBKTNV-1" source="uTGXkF76KkGdGuq-BqcJ-65" target="uTGXkF76KkGdGuq-BqcJ-67">
          <mxGeometry relative="1" as="geometry" />
        </mxCell>
        <mxCell id="uTGXkF76KkGdGuq-BqcJ-70" value="" style="edgeStyle=orthogonalEdgeStyle;rounded=0;orthogonalLoop=1;jettySize=auto;html=1;" edge="1" parent="WIyWlLk6GJQsqaUBKTNV-1" target="uTGXkF76KkGdGuq-BqcJ-69">
          <mxGeometry relative="1" as="geometry">
            <mxPoint x="1110" y="510" as="sourcePoint" />
          </mxGeometry>
        </mxCell>
        <mxCell id="uTGXkF76KkGdGuq-BqcJ-65" value="for(i=index; i&amp;lt;size-elementsToRemove; i++)" style="shape=hexagon;perimeter=hexagonPerimeter2;whiteSpace=wrap;html=1;fixedSize=1;" vertex="1" parent="WIyWlLk6GJQsqaUBKTNV-1">
          <mxGeometry x="870" y="537.5" width="120" height="55" as="geometry" />
        </mxCell>
        <mxCell id="uTGXkF76KkGdGuq-BqcJ-67" value="arr[i]=arr[i+&lt;br&gt;elementsToRemove]" style="rounded=0;whiteSpace=wrap;html=1;" vertex="1" parent="WIyWlLk6GJQsqaUBKTNV-1">
          <mxGeometry x="870" y="630" width="120" height="40" as="geometry" />
        </mxCell>
        <mxCell id="uTGXkF76KkGdGuq-BqcJ-69" value="size=size-elementsToRemove" style="rounded=0;whiteSpace=wrap;html=1;" vertex="1" parent="WIyWlLk6GJQsqaUBKTNV-1">
          <mxGeometry x="1050" y="542.5" width="120" height="45" as="geometry" />
        </mxCell>
        <mxCell id="uTGXkF76KkGdGuq-BqcJ-71" value="" style="endArrow=none;html=1;rounded=0;" edge="1" parent="WIyWlLk6GJQsqaUBKTNV-1">
          <mxGeometry width="50" height="50" relative="1" as="geometry">
            <mxPoint x="930" y="510" as="sourcePoint" />
            <mxPoint x="1110" y="510" as="targetPoint" />
          </mxGeometry>
        </mxCell>
        <mxCell id="uTGXkF76KkGdGuq-BqcJ-72" value="" style="endArrow=none;html=1;rounded=0;exitX=0.5;exitY=0;exitDx=0;exitDy=0;" edge="1" parent="WIyWlLk6GJQsqaUBKTNV-1" source="uTGXkF76KkGdGuq-BqcJ-65">
          <mxGeometry width="50" height="50" relative="1" as="geometry">
            <mxPoint x="750" y="520" as="sourcePoint" />
            <mxPoint x="930" y="510" as="targetPoint" />
          </mxGeometry>
        </mxCell>
        <mxCell id="uTGXkF76KkGdGuq-BqcJ-73" value="" style="endArrow=none;html=1;rounded=0;exitX=1;exitY=0.5;exitDx=0;exitDy=0;" edge="1" parent="WIyWlLk6GJQsqaUBKTNV-1" source="uTGXkF76KkGdGuq-BqcJ-67">
          <mxGeometry width="50" height="50" relative="1" as="geometry">
            <mxPoint x="750" y="520" as="sourcePoint" />
            <mxPoint x="1020" y="650" as="targetPoint" />
          </mxGeometry>
        </mxCell>
        <mxCell id="uTGXkF76KkGdGuq-BqcJ-74" value="" style="endArrow=none;html=1;rounded=0;" edge="1" parent="WIyWlLk6GJQsqaUBKTNV-1">
          <mxGeometry width="50" height="50" relative="1" as="geometry">
            <mxPoint x="1020" y="650" as="sourcePoint" />
            <mxPoint x="1020" y="560" as="targetPoint" />
          </mxGeometry>
        </mxCell>
        <mxCell id="uTGXkF76KkGdGuq-BqcJ-75" value="" style="endArrow=classic;html=1;rounded=0;entryX=1;entryY=0.5;entryDx=0;entryDy=0;" edge="1" parent="WIyWlLk6GJQsqaUBKTNV-1">
          <mxGeometry width="50" height="50" relative="1" as="geometry">
            <mxPoint x="1020" y="561" as="sourcePoint" />
            <mxPoint x="990" y="561" as="targetPoint" />
          </mxGeometry>
        </mxCell>
        <mxCell id="uTGXkF76KkGdGuq-BqcJ-79" value="" style="edgeStyle=orthogonalEdgeStyle;rounded=0;orthogonalLoop=1;jettySize=auto;html=1;" edge="1" parent="WIyWlLk6GJQsqaUBKTNV-1" source="uTGXkF76KkGdGuq-BqcJ-76" target="uTGXkF76KkGdGuq-BqcJ-77">
          <mxGeometry relative="1" as="geometry" />
        </mxCell>
        <mxCell id="uTGXkF76KkGdGuq-BqcJ-76" value="function getSize" style="rounded=0;whiteSpace=wrap;html=1;" vertex="1" parent="WIyWlLk6GJQsqaUBKTNV-1">
          <mxGeometry x="515" y="700" width="90" height="30" as="geometry" />
        </mxCell>
        <mxCell id="uTGXkF76KkGdGuq-BqcJ-77" value="return size" style="rounded=0;whiteSpace=wrap;html=1;" vertex="1" parent="WIyWlLk6GJQsqaUBKTNV-1">
          <mxGeometry x="650" y="700" width="80" height="30" as="geometry" />
        </mxCell>
        <mxCell id="uTGXkF76KkGdGuq-BqcJ-78" value="" style="endArrow=classic;html=1;rounded=0;entryX=0;entryY=0.5;entryDx=0;entryDy=0;" edge="1" parent="WIyWlLk6GJQsqaUBKTNV-1" target="uTGXkF76KkGdGuq-BqcJ-76">
          <mxGeometry width="50" height="50" relative="1" as="geometry">
            <mxPoint x="400" y="715" as="sourcePoint" />
            <mxPoint x="800" y="640" as="targetPoint" />
          </mxGeometry>
        </mxCell>
        <mxCell id="uTGXkF76KkGdGuq-BqcJ-80" value="" style="edgeStyle=orthogonalEdgeStyle;rounded=0;orthogonalLoop=1;jettySize=auto;html=1;" edge="1" parent="WIyWlLk6GJQsqaUBKTNV-1" source="uTGXkF76KkGdGuq-BqcJ-81" target="uTGXkF76KkGdGuq-BqcJ-82">
          <mxGeometry relative="1" as="geometry" />
        </mxCell>
        <mxCell id="uTGXkF76KkGdGuq-BqcJ-81" value="function getCapacity" style="rounded=0;whiteSpace=wrap;html=1;" vertex="1" parent="WIyWlLk6GJQsqaUBKTNV-1">
          <mxGeometry x="515" y="760" width="90" height="30" as="geometry" />
        </mxCell>
        <mxCell id="uTGXkF76KkGdGuq-BqcJ-82" value="return capacity" style="rounded=0;whiteSpace=wrap;html=1;" vertex="1" parent="WIyWlLk6GJQsqaUBKTNV-1">
          <mxGeometry x="650" y="760" width="80" height="30" as="geometry" />
        </mxCell>
        <mxCell id="uTGXkF76KkGdGuq-BqcJ-83" value="" style="endArrow=classic;html=1;rounded=0;entryX=0;entryY=0.5;entryDx=0;entryDy=0;" edge="1" parent="WIyWlLk6GJQsqaUBKTNV-1" target="uTGXkF76KkGdGuq-BqcJ-81">
          <mxGeometry width="50" height="50" relative="1" as="geometry">
            <mxPoint x="400" y="775" as="sourcePoint" />
            <mxPoint x="800" y="700" as="targetPoint" />
          </mxGeometry>
        </mxCell>
        <mxCell id="uTGXkF76KkGdGuq-BqcJ-84" value="" style="edgeStyle=orthogonalEdgeStyle;rounded=0;orthogonalLoop=1;jettySize=auto;html=1;" edge="1" parent="WIyWlLk6GJQsqaUBKTNV-1" source="uTGXkF76KkGdGuq-BqcJ-85" target="uTGXkF76KkGdGuq-BqcJ-86">
          <mxGeometry relative="1" as="geometry" />
        </mxCell>
        <mxCell id="uTGXkF76KkGdGuq-BqcJ-85" value="function set" style="rounded=0;whiteSpace=wrap;html=1;" vertex="1" parent="WIyWlLk6GJQsqaUBKTNV-1">
          <mxGeometry x="515" y="820" width="90" height="30" as="geometry" />
        </mxCell>
        <mxCell id="uTGXkF76KkGdGuq-BqcJ-86" value="arr[index]=&lt;br&gt;value" style="rounded=0;whiteSpace=wrap;html=1;" vertex="1" parent="WIyWlLk6GJQsqaUBKTNV-1">
          <mxGeometry x="650" y="820" width="80" height="30" as="geometry" />
        </mxCell>
        <mxCell id="uTGXkF76KkGdGuq-BqcJ-87" value="" style="endArrow=classic;html=1;rounded=0;entryX=0;entryY=0.5;entryDx=0;entryDy=0;" edge="1" parent="WIyWlLk6GJQsqaUBKTNV-1" target="uTGXkF76KkGdGuq-BqcJ-85">
          <mxGeometry width="50" height="50" relative="1" as="geometry">
            <mxPoint x="400" y="835" as="sourcePoint" />
            <mxPoint x="795" y="760" as="targetPoint" />
          </mxGeometry>
        </mxCell>
        <mxCell id="uTGXkF76KkGdGuq-BqcJ-88" value="" style="edgeStyle=orthogonalEdgeStyle;rounded=0;orthogonalLoop=1;jettySize=auto;html=1;entryX=0;entryY=0.5;entryDx=0;entryDy=0;" edge="1" parent="WIyWlLk6GJQsqaUBKTNV-1" source="uTGXkF76KkGdGuq-BqcJ-89" target="uTGXkF76KkGdGuq-BqcJ-92">
          <mxGeometry relative="1" as="geometry">
            <mxPoint x="645" y="895" as="targetPoint" />
          </mxGeometry>
        </mxCell>
        <mxCell id="uTGXkF76KkGdGuq-BqcJ-89" value="function print" style="rounded=0;whiteSpace=wrap;html=1;" vertex="1" parent="WIyWlLk6GJQsqaUBKTNV-1">
          <mxGeometry x="515" y="880" width="90" height="30" as="geometry" />
        </mxCell>
        <mxCell id="uTGXkF76KkGdGuq-BqcJ-91" value="" style="endArrow=classic;html=1;rounded=0;entryX=0;entryY=0.5;entryDx=0;entryDy=0;" edge="1" parent="WIyWlLk6GJQsqaUBKTNV-1" target="uTGXkF76KkGdGuq-BqcJ-89">
          <mxGeometry width="50" height="50" relative="1" as="geometry">
            <mxPoint x="400" y="895" as="sourcePoint" />
            <mxPoint x="795" y="820" as="targetPoint" />
          </mxGeometry>
        </mxCell>
        <mxCell id="uTGXkF76KkGdGuq-BqcJ-92" value="for (i=0; i&amp;lt;size; ++i)" style="shape=hexagon;perimeter=hexagonPerimeter2;whiteSpace=wrap;html=1;fixedSize=1;" vertex="1" parent="WIyWlLk6GJQsqaUBKTNV-1">
          <mxGeometry x="640" y="880" width="120" height="30" as="geometry" />
        </mxCell>
        <mxCell id="uTGXkF76KkGdGuq-BqcJ-94" value="Output arr[i]" style="shape=parallelogram;perimeter=parallelogramPerimeter;whiteSpace=wrap;html=1;fixedSize=1;" vertex="1" parent="WIyWlLk6GJQsqaUBKTNV-1">
          <mxGeometry x="650" y="940" width="100" height="35" as="geometry" />
        </mxCell>
        <mxCell id="uTGXkF76KkGdGuq-BqcJ-95" value="" style="endArrow=classic;html=1;rounded=0;exitX=0.5;exitY=1;exitDx=0;exitDy=0;entryX=0.5;entryY=0;entryDx=0;entryDy=0;" edge="1" parent="WIyWlLk6GJQsqaUBKTNV-1" source="uTGXkF76KkGdGuq-BqcJ-92" target="uTGXkF76KkGdGuq-BqcJ-94">
          <mxGeometry width="50" height="50" relative="1" as="geometry">
            <mxPoint x="750" y="920" as="sourcePoint" />
            <mxPoint x="800" y="870" as="targetPoint" />
          </mxGeometry>
        </mxCell>
        <mxCell id="uTGXkF76KkGdGuq-BqcJ-96" value="" style="endArrow=none;html=1;rounded=0;exitX=1;exitY=0.5;exitDx=0;exitDy=0;" edge="1" parent="WIyWlLk6GJQsqaUBKTNV-1" source="uTGXkF76KkGdGuq-BqcJ-94">
          <mxGeometry width="50" height="50" relative="1" as="geometry">
            <mxPoint x="750" y="1020" as="sourcePoint" />
            <mxPoint x="780" y="958" as="targetPoint" />
          </mxGeometry>
        </mxCell>
        <mxCell id="uTGXkF76KkGdGuq-BqcJ-97" value="" style="endArrow=none;html=1;rounded=0;" edge="1" parent="WIyWlLk6GJQsqaUBKTNV-1">
          <mxGeometry width="50" height="50" relative="1" as="geometry">
            <mxPoint x="780" y="956" as="sourcePoint" />
            <mxPoint x="780" y="896" as="targetPoint" />
          </mxGeometry>
        </mxCell>
        <mxCell id="uTGXkF76KkGdGuq-BqcJ-98" value="" style="endArrow=classic;html=1;rounded=0;entryX=1;entryY=0.5;entryDx=0;entryDy=0;" edge="1" parent="WIyWlLk6GJQsqaUBKTNV-1" target="uTGXkF76KkGdGuq-BqcJ-92">
          <mxGeometry width="50" height="50" relative="1" as="geometry">
            <mxPoint x="780" y="895" as="sourcePoint" />
            <mxPoint x="800" y="970" as="targetPoint" />
          </mxGeometry>
        </mxCell>
        <mxCell id="uTGXkF76KkGdGuq-BqcJ-99" value="" style="endArrow=none;html=1;rounded=0;exitX=0.5;exitY=0;exitDx=0;exitDy=0;" edge="1" parent="WIyWlLk6GJQsqaUBKTNV-1" source="uTGXkF76KkGdGuq-BqcJ-92">
          <mxGeometry width="50" height="50" relative="1" as="geometry">
            <mxPoint x="750" y="1020" as="sourcePoint" />
            <mxPoint x="700" y="870" as="targetPoint" />
          </mxGeometry>
        </mxCell>
        <mxCell id="uTGXkF76KkGdGuq-BqcJ-100" value="" style="endArrow=none;html=1;rounded=0;" edge="1" parent="WIyWlLk6GJQsqaUBKTNV-1">
          <mxGeometry width="50" height="50" relative="1" as="geometry">
            <mxPoint x="700" y="870" as="sourcePoint" />
            <mxPoint x="820" y="870" as="targetPoint" />
          </mxGeometry>
        </mxCell>
        <mxCell id="uTGXkF76KkGdGuq-BqcJ-107" value="" style="edgeStyle=orthogonalEdgeStyle;rounded=0;orthogonalLoop=1;jettySize=auto;html=1;" edge="1" parent="WIyWlLk6GJQsqaUBKTNV-1" source="uTGXkF76KkGdGuq-BqcJ-103" target="uTGXkF76KkGdGuq-BqcJ-106">
          <mxGeometry relative="1" as="geometry" />
        </mxCell>
        <mxCell id="uTGXkF76KkGdGuq-BqcJ-103" value="function main" style="rounded=0;whiteSpace=wrap;html=1;" vertex="1" parent="WIyWlLk6GJQsqaUBKTNV-1">
          <mxGeometry x="355" y="1040" width="90" height="40" as="geometry" />
        </mxCell>
        <mxCell id="uTGXkF76KkGdGuq-BqcJ-104" value="" style="endArrow=classic;html=1;rounded=0;entryX=0.5;entryY=0;entryDx=0;entryDy=0;" edge="1" parent="WIyWlLk6GJQsqaUBKTNV-1" target="uTGXkF76KkGdGuq-BqcJ-103">
          <mxGeometry width="50" height="50" relative="1" as="geometry">
            <mxPoint x="400" y="950" as="sourcePoint" />
            <mxPoint x="800" y="770" as="targetPoint" />
          </mxGeometry>
        </mxCell>
        <mxCell id="uTGXkF76KkGdGuq-BqcJ-105" value="Input Q" style="shape=parallelogram;perimeter=parallelogramPerimeter;whiteSpace=wrap;html=1;fixedSize=1;" vertex="1" parent="WIyWlLk6GJQsqaUBKTNV-1">
          <mxGeometry x="360" y="1100" width="80" height="30" as="geometry" />
        </mxCell>
        <mxCell id="uTGXkF76KkGdGuq-BqcJ-111" value="" style="edgeStyle=orthogonalEdgeStyle;rounded=0;orthogonalLoop=1;jettySize=auto;html=1;" edge="1" parent="WIyWlLk6GJQsqaUBKTNV-1" source="uTGXkF76KkGdGuq-BqcJ-106" target="uTGXkF76KkGdGuq-BqcJ-109">
          <mxGeometry relative="1" as="geometry" />
        </mxCell>
        <mxCell id="uTGXkF76KkGdGuq-BqcJ-106" value="DynamicArray dynamicArray" style="rounded=0;whiteSpace=wrap;html=1;" vertex="1" parent="WIyWlLk6GJQsqaUBKTNV-1">
          <mxGeometry x="355" y="1150" width="90" height="50" as="geometry" />
        </mxCell>
        <mxCell id="uTGXkF76KkGdGuq-BqcJ-108" value="" style="endArrow=classic;html=1;rounded=0;exitX=0.5;exitY=1;exitDx=0;exitDy=0;entryX=0.5;entryY=0;entryDx=0;entryDy=0;" edge="1" parent="WIyWlLk6GJQsqaUBKTNV-1" source="uTGXkF76KkGdGuq-BqcJ-103" target="uTGXkF76KkGdGuq-BqcJ-105">
          <mxGeometry width="50" height="50" relative="1" as="geometry">
            <mxPoint x="750" y="1160" as="sourcePoint" />
            <mxPoint x="800" y="1110" as="targetPoint" />
          </mxGeometry>
        </mxCell>
        <mxCell id="uTGXkF76KkGdGuq-BqcJ-112" value="" style="edgeStyle=orthogonalEdgeStyle;rounded=0;orthogonalLoop=1;jettySize=auto;html=1;" edge="1" parent="WIyWlLk6GJQsqaUBKTNV-1" source="uTGXkF76KkGdGuq-BqcJ-109" target="uTGXkF76KkGdGuq-BqcJ-110">
          <mxGeometry relative="1" as="geometry" />
        </mxCell>
        <mxCell id="uTGXkF76KkGdGuq-BqcJ-109" value="for(i=0; i&amp;lt;Q; i++)" style="shape=hexagon;perimeter=hexagonPerimeter2;whiteSpace=wrap;html=1;fixedSize=1;" vertex="1" parent="WIyWlLk6GJQsqaUBKTNV-1">
          <mxGeometry x="350" y="1220" width="100" height="40" as="geometry" />
        </mxCell>
        <mxCell id="uTGXkF76KkGdGuq-BqcJ-116" value="" style="edgeStyle=orthogonalEdgeStyle;rounded=0;orthogonalLoop=1;jettySize=auto;html=1;" edge="1" parent="WIyWlLk6GJQsqaUBKTNV-1" source="uTGXkF76KkGdGuq-BqcJ-110" target="uTGXkF76KkGdGuq-BqcJ-113">
          <mxGeometry relative="1" as="geometry" />
        </mxCell>
        <mxCell id="uTGXkF76KkGdGuq-BqcJ-110" value="Input identifiers[i]" style="shape=parallelogram;perimeter=parallelogramPerimeter;whiteSpace=wrap;html=1;fixedSize=1;" vertex="1" parent="WIyWlLk6GJQsqaUBKTNV-1">
          <mxGeometry x="460" y="1225" width="120" height="30" as="geometry" />
        </mxCell>
        <mxCell id="uTGXkF76KkGdGuq-BqcJ-115" value="" style="edgeStyle=orthogonalEdgeStyle;rounded=0;orthogonalLoop=1;jettySize=auto;html=1;" edge="1" parent="WIyWlLk6GJQsqaUBKTNV-1" source="uTGXkF76KkGdGuq-BqcJ-113" target="uTGXkF76KkGdGuq-BqcJ-114">
          <mxGeometry relative="1" as="geometry" />
        </mxCell>
        <mxCell id="uTGXkF76KkGdGuq-BqcJ-123" value="" style="edgeStyle=orthogonalEdgeStyle;rounded=0;orthogonalLoop=1;jettySize=auto;html=1;" edge="1" parent="WIyWlLk6GJQsqaUBKTNV-1" source="uTGXkF76KkGdGuq-BqcJ-113" target="uTGXkF76KkGdGuq-BqcJ-121">
          <mxGeometry relative="1" as="geometry" />
        </mxCell>
        <mxCell id="uTGXkF76KkGdGuq-BqcJ-113" value="identifiers[i]=&lt;br&gt;&#39;size&#39;" style="rhombus;whiteSpace=wrap;html=1;" vertex="1" parent="WIyWlLk6GJQsqaUBKTNV-1">
          <mxGeometry x="605" y="1200" width="80" height="80" as="geometry" />
        </mxCell>
        <mxCell id="uTGXkF76KkGdGuq-BqcJ-114" value="Output dynamicArray.&lt;br&gt;getSize" style="shape=parallelogram;perimeter=parallelogramPerimeter;whiteSpace=wrap;html=1;fixedSize=1;" vertex="1" parent="WIyWlLk6GJQsqaUBKTNV-1">
          <mxGeometry x="585" y="1300" width="120" height="40" as="geometry" />
        </mxCell>
        <mxCell id="uTGXkF76KkGdGuq-BqcJ-117" value="" style="endArrow=none;html=1;rounded=0;exitX=0.5;exitY=1;exitDx=0;exitDy=0;" edge="1" parent="WIyWlLk6GJQsqaUBKTNV-1" source="uTGXkF76KkGdGuq-BqcJ-114">
          <mxGeometry width="50" height="50" relative="1" as="geometry">
            <mxPoint x="750" y="1260" as="sourcePoint" />
            <mxPoint x="645" y="1370" as="targetPoint" />
          </mxGeometry>
        </mxCell>
        <mxCell id="uTGXkF76KkGdGuq-BqcJ-118" value="" style="endArrow=none;html=1;rounded=0;" edge="1" parent="WIyWlLk6GJQsqaUBKTNV-1">
          <mxGeometry width="50" height="50" relative="1" as="geometry">
            <mxPoint x="2330" y="1370" as="sourcePoint" />
            <mxPoint x="400" y="1370" as="targetPoint" />
          </mxGeometry>
        </mxCell>
        <mxCell id="uTGXkF76KkGdGuq-BqcJ-119" value="" style="endArrow=classic;html=1;rounded=0;entryX=0.5;entryY=1;entryDx=0;entryDy=0;" edge="1" parent="WIyWlLk6GJQsqaUBKTNV-1" target="uTGXkF76KkGdGuq-BqcJ-109">
          <mxGeometry width="50" height="50" relative="1" as="geometry">
            <mxPoint x="400" y="1370" as="sourcePoint" />
            <mxPoint x="800" y="1210" as="targetPoint" />
          </mxGeometry>
        </mxCell>
        <mxCell id="uTGXkF76KkGdGuq-BqcJ-120" value="" style="endArrow=classic;html=1;rounded=0;exitX=0.5;exitY=1;exitDx=0;exitDy=0;" edge="1" parent="WIyWlLk6GJQsqaUBKTNV-1" source="uTGXkF76KkGdGuq-BqcJ-114">
          <mxGeometry width="50" height="50" relative="1" as="geometry">
            <mxPoint x="750" y="1260" as="sourcePoint" />
            <mxPoint x="645" y="1370" as="targetPoint" />
          </mxGeometry>
        </mxCell>
        <mxCell id="uTGXkF76KkGdGuq-BqcJ-124" value="" style="edgeStyle=orthogonalEdgeStyle;rounded=0;orthogonalLoop=1;jettySize=auto;html=1;" edge="1" parent="WIyWlLk6GJQsqaUBKTNV-1" source="uTGXkF76KkGdGuq-BqcJ-121" target="uTGXkF76KkGdGuq-BqcJ-122">
          <mxGeometry relative="1" as="geometry" />
        </mxCell>
        <mxCell id="uTGXkF76KkGdGuq-BqcJ-129" value="" style="edgeStyle=orthogonalEdgeStyle;rounded=0;orthogonalLoop=1;jettySize=auto;html=1;" edge="1" parent="WIyWlLk6GJQsqaUBKTNV-1" source="uTGXkF76KkGdGuq-BqcJ-121" target="uTGXkF76KkGdGuq-BqcJ-126">
          <mxGeometry relative="1" as="geometry" />
        </mxCell>
        <mxCell id="uTGXkF76KkGdGuq-BqcJ-121" value="identifiers[i]=&lt;br&gt;&#39;capacity&#39;" style="rhombus;whiteSpace=wrap;html=1;" vertex="1" parent="WIyWlLk6GJQsqaUBKTNV-1">
          <mxGeometry x="740" y="1200" width="80" height="80" as="geometry" />
        </mxCell>
        <mxCell id="uTGXkF76KkGdGuq-BqcJ-122" value="Output dynamicArray.&lt;br&gt;getCapacity" style="shape=parallelogram;perimeter=parallelogramPerimeter;whiteSpace=wrap;html=1;fixedSize=1;" vertex="1" parent="WIyWlLk6GJQsqaUBKTNV-1">
          <mxGeometry x="720" y="1300" width="120" height="40" as="geometry" />
        </mxCell>
        <mxCell id="uTGXkF76KkGdGuq-BqcJ-125" value="" style="endArrow=classic;html=1;rounded=0;exitX=0.5;exitY=1;exitDx=0;exitDy=0;" edge="1" parent="WIyWlLk6GJQsqaUBKTNV-1" source="uTGXkF76KkGdGuq-BqcJ-122">
          <mxGeometry width="50" height="50" relative="1" as="geometry">
            <mxPoint x="750" y="1260" as="sourcePoint" />
            <mxPoint x="780" y="1370" as="targetPoint" />
          </mxGeometry>
        </mxCell>
        <mxCell id="uTGXkF76KkGdGuq-BqcJ-128" value="" style="edgeStyle=orthogonalEdgeStyle;rounded=0;orthogonalLoop=1;jettySize=auto;html=1;exitX=0.5;exitY=1;exitDx=0;exitDy=0;" edge="1" parent="WIyWlLk6GJQsqaUBKTNV-1" source="uTGXkF76KkGdGuq-BqcJ-126" target="uTGXkF76KkGdGuq-BqcJ-127">
          <mxGeometry relative="1" as="geometry">
            <mxPoint x="920" y="1288" as="sourcePoint" />
          </mxGeometry>
        </mxCell>
        <mxCell id="uTGXkF76KkGdGuq-BqcJ-126" value="identifiers[i]=&lt;br&gt;&#39;insert&#39;" style="rhombus;whiteSpace=wrap;html=1;" vertex="1" parent="WIyWlLk6GJQsqaUBKTNV-1">
          <mxGeometry x="880" y="1200" width="80" height="80" as="geometry" />
        </mxCell>
        <mxCell id="uTGXkF76KkGdGuq-BqcJ-131" value="" style="edgeStyle=orthogonalEdgeStyle;rounded=0;orthogonalLoop=1;jettySize=auto;html=1;" edge="1" parent="WIyWlLk6GJQsqaUBKTNV-1" source="uTGXkF76KkGdGuq-BqcJ-127" target="uTGXkF76KkGdGuq-BqcJ-130">
          <mxGeometry relative="1" as="geometry" />
        </mxCell>
        <mxCell id="uTGXkF76KkGdGuq-BqcJ-127" value="Input index, N" style="shape=parallelogram;perimeter=parallelogramPerimeter;whiteSpace=wrap;html=1;fixedSize=1;" vertex="1" parent="WIyWlLk6GJQsqaUBKTNV-1">
          <mxGeometry x="865" y="1313" width="110" height="30" as="geometry" />
        </mxCell>
        <mxCell id="uTGXkF76KkGdGuq-BqcJ-130" value="for(j=0; j&amp;lt;N; ++j)" style="shape=hexagon;perimeter=hexagonPerimeter2;whiteSpace=wrap;html=1;fixedSize=1;" vertex="1" parent="WIyWlLk6GJQsqaUBKTNV-1">
          <mxGeometry x="1000" y="1313" width="110" height="30" as="geometry" />
        </mxCell>
        <mxCell id="uTGXkF76KkGdGuq-BqcJ-132" value="" style="endArrow=none;html=1;rounded=0;exitX=0.5;exitY=1;exitDx=0;exitDy=0;" edge="1" parent="WIyWlLk6GJQsqaUBKTNV-1" source="uTGXkF76KkGdGuq-BqcJ-130">
          <mxGeometry width="50" height="50" relative="1" as="geometry">
            <mxPoint x="750" y="1268" as="sourcePoint" />
            <mxPoint x="1055" y="1358" as="targetPoint" />
          </mxGeometry>
        </mxCell>
        <mxCell id="uTGXkF76KkGdGuq-BqcJ-133" value="" style="endArrow=none;html=1;rounded=0;" edge="1" parent="WIyWlLk6GJQsqaUBKTNV-1">
          <mxGeometry width="50" height="50" relative="1" as="geometry">
            <mxPoint x="1055" y="1358" as="sourcePoint" />
            <mxPoint x="1180" y="1358" as="targetPoint" />
          </mxGeometry>
        </mxCell>
        <mxCell id="uTGXkF76KkGdGuq-BqcJ-135" value="Input values[j]" style="shape=parallelogram;perimeter=parallelogramPerimeter;whiteSpace=wrap;html=1;fixedSize=1;" vertex="1" parent="WIyWlLk6GJQsqaUBKTNV-1">
          <mxGeometry x="1125" y="1313" width="110" height="30" as="geometry" />
        </mxCell>
        <mxCell id="uTGXkF76KkGdGuq-BqcJ-136" value="" style="endArrow=classic;html=1;rounded=0;entryX=0.5;entryY=1;entryDx=0;entryDy=0;" edge="1" parent="WIyWlLk6GJQsqaUBKTNV-1" target="uTGXkF76KkGdGuq-BqcJ-135">
          <mxGeometry width="50" height="50" relative="1" as="geometry">
            <mxPoint x="1180" y="1358" as="sourcePoint" />
            <mxPoint x="805" y="1218" as="targetPoint" />
          </mxGeometry>
        </mxCell>
        <mxCell id="uTGXkF76KkGdGuq-BqcJ-137" value="" style="endArrow=classic;html=1;rounded=0;entryX=1;entryY=0.5;entryDx=0;entryDy=0;exitX=0;exitY=0.5;exitDx=0;exitDy=0;" edge="1" parent="WIyWlLk6GJQsqaUBKTNV-1" source="uTGXkF76KkGdGuq-BqcJ-135" target="uTGXkF76KkGdGuq-BqcJ-130">
          <mxGeometry width="50" height="50" relative="1" as="geometry">
            <mxPoint x="750" y="1268" as="sourcePoint" />
            <mxPoint x="800" y="1218" as="targetPoint" />
          </mxGeometry>
        </mxCell>
        <mxCell id="uTGXkF76KkGdGuq-BqcJ-138" value="" style="endArrow=none;html=1;rounded=0;entryX=0.5;entryY=0;entryDx=0;entryDy=0;" edge="1" parent="WIyWlLk6GJQsqaUBKTNV-1">
          <mxGeometry width="50" height="50" relative="1" as="geometry">
            <mxPoint x="1051" y="1297" as="sourcePoint" />
            <mxPoint x="1051" y="1310" as="targetPoint" />
          </mxGeometry>
        </mxCell>
        <mxCell id="uTGXkF76KkGdGuq-BqcJ-139" value="dynamicArray.insert&lt;br&gt;delete values" style="rounded=0;whiteSpace=wrap;html=1;" vertex="1" parent="WIyWlLk6GJQsqaUBKTNV-1">
          <mxGeometry x="1249" y="1276" width="125" height="40" as="geometry" />
        </mxCell>
        <mxCell id="uTGXkF76KkGdGuq-BqcJ-140" value="" style="endArrow=classic;html=1;rounded=0;entryX=0;entryY=0.5;entryDx=0;entryDy=0;" edge="1" parent="WIyWlLk6GJQsqaUBKTNV-1" target="uTGXkF76KkGdGuq-BqcJ-139">
          <mxGeometry width="50" height="50" relative="1" as="geometry">
            <mxPoint x="1050" y="1296" as="sourcePoint" />
            <mxPoint x="808" y="1231" as="targetPoint" />
          </mxGeometry>
        </mxCell>
        <mxCell id="uTGXkF76KkGdGuq-BqcJ-141" value="" style="endArrow=classic;html=1;rounded=0;exitX=0.5;exitY=1;exitDx=0;exitDy=0;" edge="1" parent="WIyWlLk6GJQsqaUBKTNV-1" source="uTGXkF76KkGdGuq-BqcJ-139">
          <mxGeometry width="50" height="50" relative="1" as="geometry">
            <mxPoint x="990" y="1260" as="sourcePoint" />
            <mxPoint x="1312" y="1370" as="targetPoint" />
          </mxGeometry>
        </mxCell>
        <mxCell id="uTGXkF76KkGdGuq-BqcJ-145" value="" style="edgeStyle=orthogonalEdgeStyle;rounded=0;orthogonalLoop=1;jettySize=auto;html=1;" edge="1" parent="WIyWlLk6GJQsqaUBKTNV-1" source="uTGXkF76KkGdGuq-BqcJ-142" target="uTGXkF76KkGdGuq-BqcJ-144">
          <mxGeometry relative="1" as="geometry" />
        </mxCell>
        <mxCell id="uTGXkF76KkGdGuq-BqcJ-142" value="identifiers[i]=&lt;br&gt;&#39;erase&#39;" style="rhombus;whiteSpace=wrap;html=1;" vertex="1" parent="WIyWlLk6GJQsqaUBKTNV-1">
          <mxGeometry x="1430" y="1200" width="80" height="80" as="geometry" />
        </mxCell>
        <mxCell id="uTGXkF76KkGdGuq-BqcJ-143" value="" style="endArrow=classic;html=1;rounded=0;exitX=1;exitY=0.5;exitDx=0;exitDy=0;entryX=0;entryY=0.5;entryDx=0;entryDy=0;" edge="1" parent="WIyWlLk6GJQsqaUBKTNV-1" source="uTGXkF76KkGdGuq-BqcJ-126" target="uTGXkF76KkGdGuq-BqcJ-142">
          <mxGeometry width="50" height="50" relative="1" as="geometry">
            <mxPoint x="990" y="1260" as="sourcePoint" />
            <mxPoint x="1040" y="1210" as="targetPoint" />
          </mxGeometry>
        </mxCell>
        <mxCell id="uTGXkF76KkGdGuq-BqcJ-144" value="Input index, n" style="shape=parallelogram;perimeter=parallelogramPerimeter;whiteSpace=wrap;html=1;fixedSize=1;" vertex="1" parent="WIyWlLk6GJQsqaUBKTNV-1">
          <mxGeometry x="1410" y="1313" width="120" height="30" as="geometry" />
        </mxCell>
        <mxCell id="uTGXkF76KkGdGuq-BqcJ-146" value="dynamicArray&lt;br&gt;.erase" style="rounded=0;whiteSpace=wrap;html=1;" vertex="1" parent="WIyWlLk6GJQsqaUBKTNV-1">
          <mxGeometry x="1550" y="1313" width="90" height="30" as="geometry" />
        </mxCell>
        <mxCell id="uTGXkF76KkGdGuq-BqcJ-147" value="" style="endArrow=classic;html=1;rounded=0;entryX=0;entryY=0.5;entryDx=0;entryDy=0;exitX=1;exitY=0.5;exitDx=0;exitDy=0;" edge="1" parent="WIyWlLk6GJQsqaUBKTNV-1" source="uTGXkF76KkGdGuq-BqcJ-144" target="uTGXkF76KkGdGuq-BqcJ-146">
          <mxGeometry width="50" height="50" relative="1" as="geometry">
            <mxPoint x="990" y="1260" as="sourcePoint" />
            <mxPoint x="1040" y="1210" as="targetPoint" />
          </mxGeometry>
        </mxCell>
        <mxCell id="uTGXkF76KkGdGuq-BqcJ-148" value="" style="endArrow=classic;html=1;rounded=0;exitX=0.5;exitY=1;exitDx=0;exitDy=0;" edge="1" parent="WIyWlLk6GJQsqaUBKTNV-1" source="uTGXkF76KkGdGuq-BqcJ-146">
          <mxGeometry width="50" height="50" relative="1" as="geometry">
            <mxPoint x="990" y="1260" as="sourcePoint" />
            <mxPoint x="1595" y="1370" as="targetPoint" />
          </mxGeometry>
        </mxCell>
        <mxCell id="uTGXkF76KkGdGuq-BqcJ-149" value="" style="edgeStyle=orthogonalEdgeStyle;rounded=0;orthogonalLoop=1;jettySize=auto;html=1;" edge="1" parent="WIyWlLk6GJQsqaUBKTNV-1" source="uTGXkF76KkGdGuq-BqcJ-150" target="uTGXkF76KkGdGuq-BqcJ-151">
          <mxGeometry relative="1" as="geometry" />
        </mxCell>
        <mxCell id="uTGXkF76KkGdGuq-BqcJ-150" value="identifiers[i]=&lt;br&gt;&#39;set&#39;" style="rhombus;whiteSpace=wrap;html=1;" vertex="1" parent="WIyWlLk6GJQsqaUBKTNV-1">
          <mxGeometry x="1680" y="1200" width="80" height="80" as="geometry" />
        </mxCell>
        <mxCell id="uTGXkF76KkGdGuq-BqcJ-151" value="Input index, value" style="shape=parallelogram;perimeter=parallelogramPerimeter;whiteSpace=wrap;html=1;fixedSize=1;" vertex="1" parent="WIyWlLk6GJQsqaUBKTNV-1">
          <mxGeometry x="1660" y="1313" width="120" height="30" as="geometry" />
        </mxCell>
        <mxCell id="uTGXkF76KkGdGuq-BqcJ-152" value="dynamicArray&lt;br&gt;.set" style="rounded=0;whiteSpace=wrap;html=1;" vertex="1" parent="WIyWlLk6GJQsqaUBKTNV-1">
          <mxGeometry x="1800" y="1313" width="90" height="30" as="geometry" />
        </mxCell>
        <mxCell id="uTGXkF76KkGdGuq-BqcJ-153" value="" style="endArrow=classic;html=1;rounded=0;entryX=0;entryY=0.5;entryDx=0;entryDy=0;exitX=1;exitY=0.5;exitDx=0;exitDy=0;" edge="1" parent="WIyWlLk6GJQsqaUBKTNV-1" source="uTGXkF76KkGdGuq-BqcJ-151" target="uTGXkF76KkGdGuq-BqcJ-152">
          <mxGeometry width="50" height="50" relative="1" as="geometry">
            <mxPoint x="1240" y="1260" as="sourcePoint" />
            <mxPoint x="1290" y="1210" as="targetPoint" />
          </mxGeometry>
        </mxCell>
        <mxCell id="uTGXkF76KkGdGuq-BqcJ-154" value="" style="endArrow=classic;html=1;rounded=0;exitX=0.5;exitY=1;exitDx=0;exitDy=0;" edge="1" parent="WIyWlLk6GJQsqaUBKTNV-1" source="uTGXkF76KkGdGuq-BqcJ-152">
          <mxGeometry width="50" height="50" relative="1" as="geometry">
            <mxPoint x="1240" y="1260" as="sourcePoint" />
            <mxPoint x="1845" y="1370" as="targetPoint" />
          </mxGeometry>
        </mxCell>
        <mxCell id="uTGXkF76KkGdGuq-BqcJ-155" value="" style="edgeStyle=orthogonalEdgeStyle;rounded=0;orthogonalLoop=1;jettySize=auto;html=1;" edge="1" parent="WIyWlLk6GJQsqaUBKTNV-1" source="uTGXkF76KkGdGuq-BqcJ-156" target="uTGXkF76KkGdGuq-BqcJ-157">
          <mxGeometry relative="1" as="geometry" />
        </mxCell>
        <mxCell id="uTGXkF76KkGdGuq-BqcJ-156" value="identifiers[i]=&lt;br&gt;&#39;get&#39;" style="rhombus;whiteSpace=wrap;html=1;" vertex="1" parent="WIyWlLk6GJQsqaUBKTNV-1">
          <mxGeometry x="1930" y="1200" width="80" height="80" as="geometry" />
        </mxCell>
        <mxCell id="uTGXkF76KkGdGuq-BqcJ-157" value="Input index" style="shape=parallelogram;perimeter=parallelogramPerimeter;whiteSpace=wrap;html=1;fixedSize=1;" vertex="1" parent="WIyWlLk6GJQsqaUBKTNV-1">
          <mxGeometry x="1910" y="1313" width="120" height="30" as="geometry" />
        </mxCell>
        <mxCell id="uTGXkF76KkGdGuq-BqcJ-159" value="" style="endArrow=classic;html=1;rounded=0;entryX=0;entryY=0.5;entryDx=0;entryDy=0;exitX=1;exitY=0.5;exitDx=0;exitDy=0;" edge="1" parent="WIyWlLk6GJQsqaUBKTNV-1" source="uTGXkF76KkGdGuq-BqcJ-157">
          <mxGeometry width="50" height="50" relative="1" as="geometry">
            <mxPoint x="1490" y="1260" as="sourcePoint" />
            <mxPoint x="2050" y="1328" as="targetPoint" />
          </mxGeometry>
        </mxCell>
        <mxCell id="uTGXkF76KkGdGuq-BqcJ-160" value="" style="endArrow=classic;html=1;rounded=0;exitX=0.5;exitY=1;exitDx=0;exitDy=0;" edge="1" parent="WIyWlLk6GJQsqaUBKTNV-1">
          <mxGeometry width="50" height="50" relative="1" as="geometry">
            <mxPoint x="2094" y="1343" as="sourcePoint" />
            <mxPoint x="2094" y="1370" as="targetPoint" />
          </mxGeometry>
        </mxCell>
        <mxCell id="uTGXkF76KkGdGuq-BqcJ-161" value="" style="endArrow=classic;html=1;rounded=0;exitX=1;exitY=0.5;exitDx=0;exitDy=0;entryX=0;entryY=0.5;entryDx=0;entryDy=0;" edge="1" parent="WIyWlLk6GJQsqaUBKTNV-1" source="uTGXkF76KkGdGuq-BqcJ-142" target="uTGXkF76KkGdGuq-BqcJ-150">
          <mxGeometry width="50" height="50" relative="1" as="geometry">
            <mxPoint x="1670" y="1260" as="sourcePoint" />
            <mxPoint x="1720" y="1210" as="targetPoint" />
          </mxGeometry>
        </mxCell>
        <mxCell id="uTGXkF76KkGdGuq-BqcJ-162" value="" style="endArrow=classic;html=1;rounded=0;exitX=1;exitY=0.5;exitDx=0;exitDy=0;entryX=0;entryY=0.5;entryDx=0;entryDy=0;" edge="1" parent="WIyWlLk6GJQsqaUBKTNV-1">
          <mxGeometry width="50" height="50" relative="1" as="geometry">
            <mxPoint x="1760" y="1239.5" as="sourcePoint" />
            <mxPoint x="1930" y="1239.5" as="targetPoint" />
          </mxGeometry>
        </mxCell>
        <mxCell id="uTGXkF76KkGdGuq-BqcJ-163" value="Output dynamic&lt;br&gt;Array[index]" style="shape=parallelogram;perimeter=parallelogramPerimeter;whiteSpace=wrap;html=1;fixedSize=1;" vertex="1" parent="WIyWlLk6GJQsqaUBKTNV-1">
          <mxGeometry x="2040" y="1308" width="120" height="40" as="geometry" />
        </mxCell>
        <mxCell id="uTGXkF76KkGdGuq-BqcJ-167" value="" style="edgeStyle=orthogonalEdgeStyle;rounded=0;orthogonalLoop=1;jettySize=auto;html=1;" edge="1" parent="WIyWlLk6GJQsqaUBKTNV-1" source="uTGXkF76KkGdGuq-BqcJ-164" target="uTGXkF76KkGdGuq-BqcJ-166">
          <mxGeometry relative="1" as="geometry" />
        </mxCell>
        <mxCell id="uTGXkF76KkGdGuq-BqcJ-164" value="identifiers[i]=&lt;br&gt;&#39;print&#39;" style="rhombus;whiteSpace=wrap;html=1;" vertex="1" parent="WIyWlLk6GJQsqaUBKTNV-1">
          <mxGeometry x="2200" y="1200" width="80" height="80" as="geometry" />
        </mxCell>
        <mxCell id="uTGXkF76KkGdGuq-BqcJ-165" value="" style="endArrow=classic;html=1;rounded=0;entryX=0;entryY=0.5;entryDx=0;entryDy=0;exitX=1;exitY=0.5;exitDx=0;exitDy=0;" edge="1" parent="WIyWlLk6GJQsqaUBKTNV-1" source="uTGXkF76KkGdGuq-BqcJ-156" target="uTGXkF76KkGdGuq-BqcJ-164">
          <mxGeometry width="50" height="50" relative="1" as="geometry">
            <mxPoint x="1670" y="1260" as="sourcePoint" />
            <mxPoint x="1720" y="1210" as="targetPoint" />
          </mxGeometry>
        </mxCell>
        <mxCell id="uTGXkF76KkGdGuq-BqcJ-166" value="dynamicArray.print" style="rounded=0;whiteSpace=wrap;html=1;" vertex="1" parent="WIyWlLk6GJQsqaUBKTNV-1">
          <mxGeometry x="2185" y="1313" width="110" height="30" as="geometry" />
        </mxCell>
        <mxCell id="uTGXkF76KkGdGuq-BqcJ-168" value="" style="endArrow=classic;html=1;rounded=0;exitX=0.5;exitY=1;exitDx=0;exitDy=0;" edge="1" parent="WIyWlLk6GJQsqaUBKTNV-1" source="uTGXkF76KkGdGuq-BqcJ-166">
          <mxGeometry width="50" height="50" relative="1" as="geometry">
            <mxPoint x="1670" y="1260" as="sourcePoint" />
            <mxPoint x="2240" y="1370" as="targetPoint" />
          </mxGeometry>
        </mxCell>
        <mxCell id="uTGXkF76KkGdGuq-BqcJ-169" value="" style="endArrow=none;html=1;rounded=0;" edge="1" parent="WIyWlLk6GJQsqaUBKTNV-1">
          <mxGeometry width="50" height="50" relative="1" as="geometry">
            <mxPoint x="2280" y="1240" as="sourcePoint" />
            <mxPoint x="2330" y="1240" as="targetPoint" />
          </mxGeometry>
        </mxCell>
        <mxCell id="uTGXkF76KkGdGuq-BqcJ-170" value="" style="endArrow=classic;html=1;rounded=0;" edge="1" parent="WIyWlLk6GJQsqaUBKTNV-1">
          <mxGeometry width="50" height="50" relative="1" as="geometry">
            <mxPoint x="2330" y="1240" as="sourcePoint" />
            <mxPoint x="2330" y="1370" as="targetPoint" />
          </mxGeometry>
        </mxCell>
        <mxCell id="uTGXkF76KkGdGuq-BqcJ-171" value="" style="endArrow=none;html=1;rounded=0;entryX=0;entryY=0.5;entryDx=0;entryDy=0;" edge="1" parent="WIyWlLk6GJQsqaUBKTNV-1" target="uTGXkF76KkGdGuq-BqcJ-109">
          <mxGeometry width="50" height="50" relative="1" as="geometry">
            <mxPoint x="300" y="1240" as="sourcePoint" />
            <mxPoint x="480" y="1210" as="targetPoint" />
          </mxGeometry>
        </mxCell>
        <mxCell id="uTGXkF76KkGdGuq-BqcJ-172" value="" style="endArrow=none;html=1;rounded=0;" edge="1" parent="WIyWlLk6GJQsqaUBKTNV-1">
          <mxGeometry width="50" height="50" relative="1" as="geometry">
            <mxPoint x="300" y="1240" as="sourcePoint" />
            <mxPoint x="300" y="1420" as="targetPoint" />
          </mxGeometry>
        </mxCell>
        <mxCell id="uTGXkF76KkGdGuq-BqcJ-173" value="delete identifiers" style="rounded=0;whiteSpace=wrap;html=1;" vertex="1" parent="WIyWlLk6GJQsqaUBKTNV-1">
          <mxGeometry x="350" y="1404" width="100" height="30" as="geometry" />
        </mxCell>
        <mxCell id="uTGXkF76KkGdGuq-BqcJ-174" value="" style="endArrow=classic;html=1;rounded=0;entryX=0;entryY=0.5;entryDx=0;entryDy=0;" edge="1" parent="WIyWlLk6GJQsqaUBKTNV-1" target="uTGXkF76KkGdGuq-BqcJ-173">
          <mxGeometry width="50" height="50" relative="1" as="geometry">
            <mxPoint x="300" y="1419" as="sourcePoint" />
            <mxPoint x="480" y="1214" as="targetPoint" />
          </mxGeometry>
        </mxCell>
        <mxCell id="uTGXkF76KkGdGuq-BqcJ-175" value="End" style="ellipse;whiteSpace=wrap;html=1;" vertex="1" parent="WIyWlLk6GJQsqaUBKTNV-1">
          <mxGeometry x="340" y="1460" width="120" height="40" as="geometry" />
        </mxCell>
        <mxCell id="uTGXkF76KkGdGuq-BqcJ-176" value="" style="endArrow=classic;html=1;rounded=0;entryX=0.5;entryY=0;entryDx=0;entryDy=0;exitX=0.5;exitY=1;exitDx=0;exitDy=0;" edge="1" parent="WIyWlLk6GJQsqaUBKTNV-1" source="uTGXkF76KkGdGuq-BqcJ-173" target="uTGXkF76KkGdGuq-BqcJ-175">
          <mxGeometry width="50" height="50" relative="1" as="geometry">
            <mxPoint x="430" y="1260" as="sourcePoint" />
            <mxPoint x="480" y="1210" as="targetPoint" />
          </mxGeometry>
        </mxCell>
        <mxCell id="uTGXkF76KkGdGuq-BqcJ-177" value="True" style="text;html=1;strokeColor=none;fillColor=none;align=center;verticalAlign=middle;whiteSpace=wrap;rounded=0;" vertex="1" parent="WIyWlLk6GJQsqaUBKTNV-1">
          <mxGeometry x="1025" y="150" width="60" height="30" as="geometry" />
        </mxCell>
        <mxCell id="uTGXkF76KkGdGuq-BqcJ-178" value="True" style="text;html=1;strokeColor=none;fillColor=none;align=center;verticalAlign=middle;whiteSpace=wrap;rounded=0;" vertex="1" parent="WIyWlLk6GJQsqaUBKTNV-1">
          <mxGeometry x="830" y="140" width="60" height="30" as="geometry" />
        </mxCell>
        <mxCell id="uTGXkF76KkGdGuq-BqcJ-179" value="True" style="text;html=1;strokeColor=none;fillColor=none;align=center;verticalAlign=middle;whiteSpace=wrap;rounded=0;" vertex="1" parent="WIyWlLk6GJQsqaUBKTNV-1">
          <mxGeometry x="660" y="470" width="60" height="30" as="geometry" />
        </mxCell>
        <mxCell id="uTGXkF76KkGdGuq-BqcJ-180" value="True" style="text;html=1;strokeColor=none;fillColor=none;align=center;verticalAlign=middle;whiteSpace=wrap;rounded=0;" vertex="1" parent="WIyWlLk6GJQsqaUBKTNV-1">
          <mxGeometry x="920" y="392.5" width="60" height="30" as="geometry" />
        </mxCell>
        <mxCell id="uTGXkF76KkGdGuq-BqcJ-181" value="" style="endArrow=none;html=1;rounded=0;entryX=0.5;entryY=1;entryDx=0;entryDy=0;" edge="1" parent="WIyWlLk6GJQsqaUBKTNV-1" target="uTGXkF76KkGdGuq-BqcJ-43">
          <mxGeometry width="50" height="50" relative="1" as="geometry">
            <mxPoint x="930" y="480" as="sourcePoint" />
            <mxPoint x="790" y="400" as="targetPoint" />
          </mxGeometry>
        </mxCell>
        <mxCell id="uTGXkF76KkGdGuq-BqcJ-182" value="" style="endArrow=none;html=1;rounded=0;" edge="1" parent="WIyWlLk6GJQsqaUBKTNV-1">
          <mxGeometry width="50" height="50" relative="1" as="geometry">
            <mxPoint x="930" y="480" as="sourcePoint" />
            <mxPoint x="1090" y="480" as="targetPoint" />
          </mxGeometry>
        </mxCell>
        <mxCell id="uTGXkF76KkGdGuq-BqcJ-183" value="" style="endArrow=classic;html=1;rounded=0;entryX=0.5;entryY=1;entryDx=0;entryDy=0;" edge="1" parent="WIyWlLk6GJQsqaUBKTNV-1" target="uTGXkF76KkGdGuq-BqcJ-47">
          <mxGeometry width="50" height="50" relative="1" as="geometry">
            <mxPoint x="1090" y="480" as="sourcePoint" />
            <mxPoint x="790" y="400" as="targetPoint" />
          </mxGeometry>
        </mxCell>
        <mxCell id="uTGXkF76KkGdGuq-BqcJ-184" value="" style="endArrow=none;html=1;rounded=0;entryX=1;entryY=0.5;entryDx=0;entryDy=0;" edge="1" parent="WIyWlLk6GJQsqaUBKTNV-1" target="uTGXkF76KkGdGuq-BqcJ-45">
          <mxGeometry width="50" height="50" relative="1" as="geometry">
            <mxPoint x="1000" y="380" as="sourcePoint" />
            <mxPoint x="790" y="400" as="targetPoint" />
          </mxGeometry>
        </mxCell>
        <mxCell id="uTGXkF76KkGdGuq-BqcJ-185" style="edgeStyle=orthogonalEdgeStyle;rounded=0;orthogonalLoop=1;jettySize=auto;html=1;exitX=0.5;exitY=1;exitDx=0;exitDy=0;" edge="1" parent="WIyWlLk6GJQsqaUBKTNV-1" source="uTGXkF76KkGdGuq-BqcJ-180" target="uTGXkF76KkGdGuq-BqcJ-180">
          <mxGeometry relative="1" as="geometry" />
        </mxCell>
        <mxCell id="uTGXkF76KkGdGuq-BqcJ-186" value="" style="endArrow=none;html=1;rounded=0;" edge="1" parent="WIyWlLk6GJQsqaUBKTNV-1">
          <mxGeometry width="50" height="50" relative="1" as="geometry">
            <mxPoint x="1000" y="440" as="sourcePoint" />
            <mxPoint x="1000" y="380" as="targetPoint" />
          </mxGeometry>
        </mxCell>
        <mxCell id="uTGXkF76KkGdGuq-BqcJ-187" value="" style="endArrow=classic;html=1;rounded=0;entryX=1;entryY=0.5;entryDx=0;entryDy=0;" edge="1" parent="WIyWlLk6GJQsqaUBKTNV-1" target="uTGXkF76KkGdGuq-BqcJ-43">
          <mxGeometry width="50" height="50" relative="1" as="geometry">
            <mxPoint x="1000" y="435" as="sourcePoint" />
            <mxPoint x="790" y="400" as="targetPoint" />
          </mxGeometry>
        </mxCell>
        <mxCell id="uTGXkF76KkGdGuq-BqcJ-188" value="True" style="text;html=1;strokeColor=none;fillColor=none;align=center;verticalAlign=middle;whiteSpace=wrap;rounded=0;" vertex="1" parent="WIyWlLk6GJQsqaUBKTNV-1">
          <mxGeometry x="1270" y="400" width="60" height="30" as="geometry" />
        </mxCell>
        <mxCell id="uTGXkF76KkGdGuq-BqcJ-189" value="" style="endArrow=none;html=1;rounded=0;exitX=0.5;exitY=0;exitDx=0;exitDy=0;" edge="1" parent="WIyWlLk6GJQsqaUBKTNV-1" source="uTGXkF76KkGdGuq-BqcJ-51">
          <mxGeometry width="50" height="50" relative="1" as="geometry">
            <mxPoint x="990" y="450" as="sourcePoint" />
            <mxPoint x="1380" y="390" as="targetPoint" />
          </mxGeometry>
        </mxCell>
        <mxCell id="uTGXkF76KkGdGuq-BqcJ-190" value="" style="endArrow=none;html=1;rounded=0;" edge="1" parent="WIyWlLk6GJQsqaUBKTNV-1">
          <mxGeometry width="50" height="50" relative="1" as="geometry">
            <mxPoint x="1240" y="390" as="sourcePoint" />
            <mxPoint x="1380" y="390" as="targetPoint" />
          </mxGeometry>
        </mxCell>
        <mxCell id="uTGXkF76KkGdGuq-BqcJ-191" value="" style="endArrow=classic;html=1;rounded=0;entryX=0.5;entryY=0;entryDx=0;entryDy=0;" edge="1" parent="WIyWlLk6GJQsqaUBKTNV-1" target="uTGXkF76KkGdGuq-BqcJ-49">
          <mxGeometry width="50" height="50" relative="1" as="geometry">
            <mxPoint x="1240" y="390" as="sourcePoint" />
            <mxPoint x="1040" y="400" as="targetPoint" />
          </mxGeometry>
        </mxCell>
        <mxCell id="uTGXkF76KkGdGuq-BqcJ-192" value="True" style="text;html=1;strokeColor=none;fillColor=none;align=center;verticalAlign=middle;whiteSpace=wrap;rounded=0;" vertex="1" parent="WIyWlLk6GJQsqaUBKTNV-1">
          <mxGeometry x="670" y="605" width="60" height="30" as="geometry" />
        </mxCell>
        <mxCell id="uTGXkF76KkGdGuq-BqcJ-193" value="True" style="text;html=1;strokeColor=none;fillColor=none;align=center;verticalAlign=middle;whiteSpace=wrap;rounded=0;" vertex="1" parent="WIyWlLk6GJQsqaUBKTNV-1">
          <mxGeometry x="927" y="592.5" width="60" height="30" as="geometry" />
        </mxCell>
        <mxCell id="uTGXkF76KkGdGuq-BqcJ-194" value="True" style="text;html=1;strokeColor=none;fillColor=none;align=center;verticalAlign=middle;whiteSpace=wrap;rounded=0;" vertex="1" parent="WIyWlLk6GJQsqaUBKTNV-1">
          <mxGeometry x="690" y="910" width="60" height="30" as="geometry" />
        </mxCell>
        <mxCell id="uTGXkF76KkGdGuq-BqcJ-195" value="" style="endArrow=none;html=1;rounded=0;" edge="1" parent="WIyWlLk6GJQsqaUBKTNV-1">
          <mxGeometry width="50" height="50" relative="1" as="geometry">
            <mxPoint x="820" y="1000" as="sourcePoint" />
            <mxPoint x="820" y="870" as="targetPoint" />
          </mxGeometry>
        </mxCell>
        <mxCell id="uTGXkF76KkGdGuq-BqcJ-196" value="" style="endArrow=classic;html=1;rounded=0;" edge="1" parent="WIyWlLk6GJQsqaUBKTNV-1">
          <mxGeometry width="50" height="50" relative="1" as="geometry">
            <mxPoint x="820" y="1000" as="sourcePoint" />
            <mxPoint x="400" y="1000" as="targetPoint" />
          </mxGeometry>
        </mxCell>
        <mxCell id="uTGXkF76KkGdGuq-BqcJ-197" value="True" style="text;html=1;strokeColor=none;fillColor=none;align=center;verticalAlign=middle;whiteSpace=wrap;rounded=0;" vertex="1" parent="WIyWlLk6GJQsqaUBKTNV-1">
          <mxGeometry x="430" y="1210" width="60" height="30" as="geometry" />
        </mxCell>
        <mxCell id="uTGXkF76KkGdGuq-BqcJ-198" value="True" style="text;html=1;strokeColor=none;fillColor=none;align=center;verticalAlign=middle;whiteSpace=wrap;rounded=0;" vertex="1" parent="WIyWlLk6GJQsqaUBKTNV-1">
          <mxGeometry x="640" y="1270" width="60" height="30" as="geometry" />
        </mxCell>
        <mxCell id="uTGXkF76KkGdGuq-BqcJ-199" value="True" style="text;html=1;strokeColor=none;fillColor=none;align=center;verticalAlign=middle;whiteSpace=wrap;rounded=0;" vertex="1" parent="WIyWlLk6GJQsqaUBKTNV-1">
          <mxGeometry x="770" y="1270" width="60" height="30" as="geometry" />
        </mxCell>
        <mxCell id="uTGXkF76KkGdGuq-BqcJ-200" value="True" style="text;html=1;strokeColor=none;fillColor=none;align=center;verticalAlign=middle;whiteSpace=wrap;rounded=0;" vertex="1" parent="WIyWlLk6GJQsqaUBKTNV-1">
          <mxGeometry x="910" y="1280" width="60" height="30" as="geometry" />
        </mxCell>
        <mxCell id="uTGXkF76KkGdGuq-BqcJ-201" value="True" style="text;html=1;strokeColor=none;fillColor=none;align=center;verticalAlign=middle;whiteSpace=wrap;rounded=0;" vertex="1" parent="WIyWlLk6GJQsqaUBKTNV-1">
          <mxGeometry x="1010" y="1340" width="60" height="30" as="geometry" />
        </mxCell>
        <mxCell id="uTGXkF76KkGdGuq-BqcJ-202" value="True" style="text;html=1;strokeColor=none;fillColor=none;align=center;verticalAlign=middle;whiteSpace=wrap;rounded=0;" vertex="1" parent="WIyWlLk6GJQsqaUBKTNV-1">
          <mxGeometry x="1470" y="1276" width="60" height="30" as="geometry" />
        </mxCell>
        <mxCell id="uTGXkF76KkGdGuq-BqcJ-203" value="True" style="text;html=1;strokeColor=none;fillColor=none;align=center;verticalAlign=middle;whiteSpace=wrap;rounded=0;" vertex="1" parent="WIyWlLk6GJQsqaUBKTNV-1">
          <mxGeometry x="1710" y="1278" width="60" height="30" as="geometry" />
        </mxCell>
        <mxCell id="uTGXkF76KkGdGuq-BqcJ-204" value="True" style="text;html=1;strokeColor=none;fillColor=none;align=center;verticalAlign=middle;whiteSpace=wrap;rounded=0;" vertex="1" parent="WIyWlLk6GJQsqaUBKTNV-1">
          <mxGeometry x="1960" y="1280" width="60" height="30" as="geometry" />
        </mxCell>
        <mxCell id="uTGXkF76KkGdGuq-BqcJ-205" value="True" style="text;html=1;strokeColor=none;fillColor=none;align=center;verticalAlign=middle;whiteSpace=wrap;rounded=0;" vertex="1" parent="WIyWlLk6GJQsqaUBKTNV-1">
          <mxGeometry x="2230" y="1281" width="60" height="30" as="geometry" />
        </mxCell>
        <mxCell id="uTGXkF76KkGdGuq-BqcJ-206" value="False" style="text;html=1;strokeColor=none;fillColor=none;align=center;verticalAlign=middle;whiteSpace=wrap;rounded=0;" vertex="1" parent="WIyWlLk6GJQsqaUBKTNV-1">
          <mxGeometry x="890" y="180" width="60" height="30" as="geometry" />
        </mxCell>
        <mxCell id="uTGXkF76KkGdGuq-BqcJ-207" value="False" style="text;html=1;strokeColor=none;fillColor=none;align=center;verticalAlign=middle;whiteSpace=wrap;rounded=0;" vertex="1" parent="WIyWlLk6GJQsqaUBKTNV-1">
          <mxGeometry x="987" y="135" width="60" height="30" as="geometry" />
        </mxCell>
        <mxCell id="uTGXkF76KkGdGuq-BqcJ-208" value="False" style="text;html=1;strokeColor=none;fillColor=none;align=center;verticalAlign=middle;whiteSpace=wrap;rounded=0;" vertex="1" parent="WIyWlLk6GJQsqaUBKTNV-1">
          <mxGeometry x="690" y="410" width="60" height="30" as="geometry" />
        </mxCell>
        <mxCell id="uTGXkF76KkGdGuq-BqcJ-209" value="False" style="text;html=1;strokeColor=none;fillColor=none;align=center;verticalAlign=middle;whiteSpace=wrap;rounded=0;" vertex="1" parent="WIyWlLk6GJQsqaUBKTNV-1">
          <mxGeometry x="920" y="452.5" width="60" height="30" as="geometry" />
        </mxCell>
        <mxCell id="uTGXkF76KkGdGuq-BqcJ-210" value="False" style="text;html=1;strokeColor=none;fillColor=none;align=center;verticalAlign=middle;whiteSpace=wrap;rounded=0;" vertex="1" parent="WIyWlLk6GJQsqaUBKTNV-1">
          <mxGeometry x="1230" y="450" width="60" height="30" as="geometry" />
        </mxCell>
        <mxCell id="uTGXkF76KkGdGuq-BqcJ-211" value="False" style="text;html=1;strokeColor=none;fillColor=none;align=center;verticalAlign=middle;whiteSpace=wrap;rounded=0;" vertex="1" parent="WIyWlLk6GJQsqaUBKTNV-1">
          <mxGeometry x="685" y="530" width="60" height="30" as="geometry" />
        </mxCell>
        <mxCell id="uTGXkF76KkGdGuq-BqcJ-212" value="False" style="text;html=1;strokeColor=none;fillColor=none;align=center;verticalAlign=middle;whiteSpace=wrap;rounded=0;" vertex="1" parent="WIyWlLk6GJQsqaUBKTNV-1">
          <mxGeometry x="920" y="512.5" width="60" height="30" as="geometry" />
        </mxCell>
        <mxCell id="uTGXkF76KkGdGuq-BqcJ-213" value="False" style="text;html=1;strokeColor=none;fillColor=none;align=center;verticalAlign=middle;whiteSpace=wrap;rounded=0;" vertex="1" parent="WIyWlLk6GJQsqaUBKTNV-1">
          <mxGeometry x="650" y="850" width="60" height="30" as="geometry" />
        </mxCell>
        <mxCell id="uTGXkF76KkGdGuq-BqcJ-214" value="False" style="text;html=1;strokeColor=none;fillColor=none;align=center;verticalAlign=middle;whiteSpace=wrap;rounded=0;" vertex="1" parent="WIyWlLk6GJQsqaUBKTNV-1">
          <mxGeometry x="300" y="1210" width="60" height="30" as="geometry" />
        </mxCell>
        <mxCell id="uTGXkF76KkGdGuq-BqcJ-215" value="False" style="text;html=1;strokeColor=none;fillColor=none;align=center;verticalAlign=middle;whiteSpace=wrap;rounded=0;" vertex="1" parent="WIyWlLk6GJQsqaUBKTNV-1">
          <mxGeometry x="670" y="1210" width="60" height="30" as="geometry" />
        </mxCell>
        <mxCell id="uTGXkF76KkGdGuq-BqcJ-216" value="False" style="text;html=1;strokeColor=none;fillColor=none;align=center;verticalAlign=middle;whiteSpace=wrap;rounded=0;" vertex="1" parent="WIyWlLk6GJQsqaUBKTNV-1">
          <mxGeometry x="805" y="1210" width="60" height="30" as="geometry" />
        </mxCell>
        <mxCell id="uTGXkF76KkGdGuq-BqcJ-217" value="False" style="text;html=1;strokeColor=none;fillColor=none;align=center;verticalAlign=middle;whiteSpace=wrap;rounded=0;" vertex="1" parent="WIyWlLk6GJQsqaUBKTNV-1">
          <mxGeometry x="950" y="1210" width="60" height="30" as="geometry" />
        </mxCell>
        <mxCell id="uTGXkF76KkGdGuq-BqcJ-218" value="False" style="text;html=1;strokeColor=none;fillColor=none;align=center;verticalAlign=middle;whiteSpace=wrap;rounded=0;" vertex="1" parent="WIyWlLk6GJQsqaUBKTNV-1">
          <mxGeometry x="1040" y="1270" width="60" height="30" as="geometry" />
        </mxCell>
        <mxCell id="uTGXkF76KkGdGuq-BqcJ-219" value="False" style="text;html=1;strokeColor=none;fillColor=none;align=center;verticalAlign=middle;whiteSpace=wrap;rounded=0;" vertex="1" parent="WIyWlLk6GJQsqaUBKTNV-1">
          <mxGeometry x="1500" y="1210" width="60" height="30" as="geometry" />
        </mxCell>
        <mxCell id="uTGXkF76KkGdGuq-BqcJ-220" value="False" style="text;html=1;strokeColor=none;fillColor=none;align=center;verticalAlign=middle;whiteSpace=wrap;rounded=0;" vertex="1" parent="WIyWlLk6GJQsqaUBKTNV-1">
          <mxGeometry x="1750" y="1210" width="60" height="30" as="geometry" />
        </mxCell>
        <mxCell id="uTGXkF76KkGdGuq-BqcJ-221" value="False" style="text;html=1;strokeColor=none;fillColor=none;align=center;verticalAlign=middle;whiteSpace=wrap;rounded=0;" vertex="1" parent="WIyWlLk6GJQsqaUBKTNV-1">
          <mxGeometry x="2000" y="1210" width="60" height="30" as="geometry" />
        </mxCell>
        <mxCell id="uTGXkF76KkGdGuq-BqcJ-222" value="False" style="text;html=1;strokeColor=none;fillColor=none;align=center;verticalAlign=middle;whiteSpace=wrap;rounded=0;" vertex="1" parent="WIyWlLk6GJQsqaUBKTNV-1">
          <mxGeometry x="2270" y="1210" width="60" height="30" as="geometry" />
        </mxCell>
      </root>
    </mxGraphModel>
  </diagram>
</mxfile>
